<svg xmlns="http://www.w3.org/2000/svg" width="1280" height="720" viewBox="0 0 1280 720">
  <rect width="1280" height="720" fill="#f4efe8"/>
  <text x="70" y="75" font-family="Segoe UI, Arial" font-size="40" font-weight="800" fill="#23180f">Web Safe analysis flow</text>
  <g font-family="Segoe UI, Arial">
    <rect x="70" y="140" width="210" height="90" rx="18" fill="#ffffff" stroke="#d86d31" stroke-width="3"/>
    <text x="105" y="177" font-size="22" font-weight="700" fill="#23180f">Popup UI</text>
    <text x="105" y="205" font-size="16" fill="#6c5a4c">User starts check</text>
    <rect x="360" y="140" width="230" height="90" rx="18" fill="#ffffff" stroke="#d86d31" stroke-width="3"/>
    <text x="395" y="177" font-size="22" font-weight="700" fill="#23180f">Background</text>
    <text x="395" y="205" font-size="16" fill="#6c5a4c">Active tab URL</text>
    <rect x="670" y="120" width="230" height="70" rx="18" fill="#ffffff" stroke="#2f8f5b" stroke-width="3"/>
    <text x="705" y="162" font-size="21" font-weight="700" fill="#23180f">DOM signals</text>
    <rect x="670" y="215" width="230" height="70" rx="18" fill="#ffffff" stroke="#2f8f5b" stroke-width="3"/>
    <text x="705" y="257" font-size="21" font-weight="700" fill="#23180f">DNS / RDAP</text>
    <rect x="670" y="310" width="230" height="70" rx="18" fill="#ffffff" stroke="#2f8f5b" stroke-width="3"/>
    <text x="705" y="352" font-size="21" font-weight="700" fill="#23180f">Threat feeds</text>
    <rect x="670" y="405" width="230" height="70" rx="18" fill="#ffffff" stroke="#2f8f5b" stroke-width="3"/>
    <text x="705" y="447" font-size="21" font-weight="700" fill="#23180f">Safe Browsing</text>
    <rect x="980" y="240" width="230" height="120" rx="22" fill="#23180f"/>
    <text x="1018" y="287" font-size="24" font-weight="800" fill="#ffffff">Risk Engine</text>
    <text x="1018" y="318" font-size="16" fill="#f4efe8">linear model + rules</text>
    <text x="1018" y="342" font-size="16" fill="#f4efe8">score 0-100</text>
    <rect x="360" y="500" width="250" height="95" rx="20" fill="#ffffff" stroke="#cf3f2e" stroke-width="3"/>
    <text x="395" y="538" font-size="22" font-weight="700" fill="#23180f">Result</text>
    <text x="395" y="566" font-size="16" fill="#6c5a4c">Score, reasons, history</text>
    <path d="M280 185h80" stroke="#a8441d" stroke-width="4" marker-end="url(#arrow)"/>
    <path d="M590 185h80" stroke="#a8441d" stroke-width="4" marker-end="url(#arrow)"/>
    <path d="M900 155c40 0 60 40 80 95" stroke="#2f8f5b" stroke-width="4" fill="none" marker-end="url(#arrow)"/>
    <path d="M900 250h80" stroke="#2f8f5b" stroke-width="4" marker-end="url(#arrow)"/>
    <path d="M900 345c40 0 60-10 80-35" stroke="#2f8f5b" stroke-width="4" fill="none" marker-end="url(#arrow)"/>
    <path d="M900 440c65 0 65-80 80-105" stroke="#2f8f5b" stroke-width="4" fill="none" marker-end="url(#arrow)"/>
    <path d="M980 360c-150 150-300 180-370 185" stroke="#cf3f2e" stroke-width="4" fill="none" marker-end="url(#arrow)"/>
  </g>
  <defs>
    <marker id="arrow" markerWidth="10" markerHeight="10" refX="8" refY="3" orient="auto">
      <path d="M0,0 L0,6 L9,3 z" fill="#a8441d"/>
    </marker>
  </defs>
</svg>
