<svg xmlns="http://www.w3.org/2000/svg" width="1280" height="800" viewBox="0 0 1280 800">
  <defs>
    <linearGradient id="bg" x1="0" x2="1" y1="0" y2="1">
      <stop offset="0" stop-color="#fff8ef"/>
      <stop offset="1" stop-color="#ece7df"/>
    </linearGradient>
    <filter id="shadow" x="-20%" y="-20%" width="140%" height="140%">
      <feDropShadow dx="0" dy="18" stdDeviation="20" flood-color="#452610" flood-opacity="0.16"/>
    </filter>
  </defs>
  <rect width="1280" height="800" fill="#f4efe8"/>
  <rect x="430" y="45" width="420" height="710" rx="28" fill="url(#bg)" filter="url(#shadow)"/>
  <text x="465" y="100" font-family="Segoe UI, Arial" font-size="16" letter-spacing="5" fill="#a8441d">RISK CHECK</text>
  <text x="465" y="147" font-family="Segoe UI, Arial" font-size="34" font-weight="800" fill="#23180f">Web Safe</text>
  <rect x="465" y="195" width="350" height="150" rx="26" fill="#ffffff" opacity="0.9"/>
  <circle cx="540" cy="270" r="52" fill="none" stroke="#dfdfdf" stroke-width="18"/>
  <path d="M540 218a52 52 0 1 1 -1 0" fill="none" stroke="#cf3f2e" stroke-width="18" stroke-linecap="round"/>
  <text x="518" y="281" font-family="Segoe UI, Arial" font-size="30" font-weight="800" fill="#cf3f2e">98</text>
  <text x="620" y="255" font-family="Segoe UI, Arial" font-size="25" font-weight="800" fill="#23180f">High risk</text>
  <text x="620" y="290" font-family="Segoe UI, Arial" font-size="17" fill="#6c5a4c">account-security-check.example</text>
  <rect x="465" y="370" width="350" height="52" rx="16" fill="#cf3f2e"/>
  <text x="585" y="404" font-family="Segoe UI, Arial" font-size="18" font-weight="700" fill="#fff">Check again</text>
  <rect x="465" y="445" width="350" height="135" rx="22" fill="#ffffff" opacity="0.9"/>
  <text x="490" y="480" font-family="Segoe UI, Arial" font-size="16" fill="#6c5a4c">Protocol</text>
  <text x="490" y="510" font-family="Segoe UI, Arial" font-size="18" font-weight="700" fill="#23180f">HTTP</text>
  <text x="655" y="480" font-family="Segoe UI, Arial" font-size="16" fill="#6c5a4c">Page</text>
  <text x="655" y="510" font-family="Segoe UI, Arial" font-size="18" font-weight="700" fill="#23180f">external form</text>
  <text x="490" y="550" font-family="Segoe UI, Arial" font-size="16" fill="#6c5a4c">ML model</text>
  <text x="490" y="573" font-family="Segoe UI, Arial" font-size="18" font-weight="700" fill="#23180f">99%</text>
  <text x="655" y="550" font-family="Segoe UI, Arial" font-size="16" fill="#6c5a4c">DNS/RDAP</text>
  <text x="655" y="573" font-family="Segoe UI, Arial" font-size="18" font-weight="700" fill="#23180f">young domain</text>
  <text x="465" y="625" font-family="Segoe UI, Arial" font-size="23" font-weight="800" fill="#23180f">Reasons</text>
  <rect x="465" y="645" width="350" height="72" rx="18" fill="#ffffff" opacity="0.9"/>
  <text x="490" y="675" font-family="Segoe UI, Arial" font-size="15" fill="#23180f">• Password form sends data externally</text>
  <text x="490" y="700" font-family="Segoe UI, Arial" font-size="15" fill="#23180f">• Brand impersonation signals found</text>
</svg>
