<svg xmlns="http://www.w3.org/2000/svg" width="1280" height="800" viewBox="0 0 1280 800">
  <defs>
    <linearGradient id="bg" x1="0" x2="1" y1="0" y2="1">
      <stop offset="0" stop-color="#fff8ef"/>
      <stop offset="1" stop-color="#ece7df"/>
    </linearGradient>
    <filter id="shadow" x="-20%" y="-20%" width="140%" height="140%">
      <feDropShadow dx="0" dy="18" stdDeviation="20" flood-color="#452610" flood-opacity="0.16"/>
    </filter>
  </defs>
  <rect width="1280" height="800" fill="#f4efe8"/>
  <rect x="430" y="70" width="420" height="660" rx="28" fill="url(#bg)" filter="url(#shadow)"/>
  <text x="465" y="125" font-family="Segoe UI, Arial" font-size="16" letter-spacing="5" fill="#a8441d">RISK CHECK</text>
  <text x="465" y="172" font-family="Segoe UI, Arial" font-size="34" font-weight="800" fill="#23180f">Web Safe</text>
  <text x="465" y="212" font-family="Segoe UI, Arial" font-size="18" fill="#6c5a4c">Quick heuristic check of the active tab.</text>
  <rect x="465" y="250" width="350" height="150" rx="26" fill="#ffffff" opacity="0.88"/>
  <circle cx="540" cy="325" r="52" fill="none" stroke="#dfdfdf" stroke-width="18"/>
  <path d="M540 273a52 52 0 0 1 31 94" fill="none" stroke="#2f8f5b" stroke-width="18" stroke-linecap="round"/>
  <text x="520" y="336" font-family="Segoe UI, Arial" font-size="30" font-weight="800" fill="#2f8f5b">10</text>
  <text x="620" y="310" font-family="Segoe UI, Arial" font-size="25" font-weight="800" fill="#23180f">Low risk</text>
  <text x="620" y="345" font-family="Segoe UI, Arial" font-size="17" fill="#6c5a4c">google.com</text>
  <rect x="465" y="425" width="350" height="52" rx="16" fill="#2f8f5b"/>
  <text x="585" y="459" font-family="Segoe UI, Arial" font-size="18" font-weight="700" fill="#fff">Check again</text>
  <rect x="465" y="500" width="350" height="135" rx="22" fill="#ffffff" opacity="0.88"/>
  <text x="490" y="535" font-family="Segoe UI, Arial" font-size="16" fill="#6c5a4c">Protocol</text>
  <text x="490" y="565" font-family="Segoe UI, Arial" font-size="18" font-weight="700" fill="#23180f">HTTPS</text>
  <text x="655" y="535" font-family="Segoe UI, Arial" font-size="16" fill="#6c5a4c">Threat feeds</text>
  <text x="655" y="565" font-family="Segoe UI, Arial" font-size="18" font-weight="700" fill="#23180f">2 sources</text>
  <text x="490" y="605" font-family="Segoe UI, Arial" font-size="16" fill="#6c5a4c">Page</text>
  <text x="490" y="628" font-family="Segoe UI, Arial" font-size="18" font-weight="700" fill="#23180f">normal</text>
  <text x="655" y="605" font-family="Segoe UI, Arial" font-size="16" fill="#6c5a4c">ML model</text>
  <text x="655" y="628" font-family="Segoe UI, Arial" font-size="18" font-weight="700" fill="#23180f">7%</text>
</svg>
